<svg width="320" height="320" viewBox="0 0 320 320" fill="none" xmlns="http://www.w3.org/2000/svg">
<rect width="320" height="320" rx="80" fill="url(#paint0_linear_733_266)"/>
<path d="M143.876 254C133.718 254 125.368 253.311 118.825 251.934C112.283 250.729 107.032 248.921 103.072 246.511C99.2841 243.929 96.6155 240.744 95.066 236.956C93.6887 233.169 93 228.692 93 223.528C93 221.978 93.0861 219.826 93.2583 217.071C93.4304 214.145 93.6887 210.099 94.033 204.934C94.3773 199.769 94.8078 193.141 95.3243 185.049C96.0129 176.786 96.8738 166.456 97.9068 154.06C99.112 138.738 100.059 126.601 100.748 117.648C101.436 108.696 101.953 101.81 102.297 96.989C102.641 91.9963 102.814 88.5531 102.814 86.6594C102.986 84.5934 103.072 82.8718 103.072 81.4945C103.072 78.7399 103.072 76.5018 103.072 74.7802C103.244 73.0586 103.416 71.7674 103.588 70.9066C103.933 69.8736 104.363 69.185 104.88 68.8407C105.568 68.3242 106.515 68.0659 107.72 68.0659C117.878 67.3773 126.487 66.8608 133.546 66.5165C140.777 66.1722 147.061 66 152.398 66C165.483 66 176.674 67.119 185.971 69.3571C195.44 71.4231 203.102 74.4359 208.955 78.3956C214.809 82.3553 219.113 87.2619 221.868 93.1154C224.623 98.9689 226 105.597 226 113C226 117.132 225.57 121.436 224.709 125.912C223.848 130.216 222.384 134.348 220.318 138.308C218.252 142.267 215.412 145.797 211.796 148.896C208.353 151.822 203.962 153.974 198.625 155.352C208.611 158.451 215.67 163.615 219.802 170.846C223.934 177.905 226 186.341 226 196.154C226 204.073 224.709 211.562 222.126 218.621C219.544 225.507 215.067 231.619 208.697 236.956C202.327 242.121 193.891 246.253 183.388 249.352C172.886 252.451 159.715 254 143.876 254ZM158.596 173.945C156.702 173.945 154.378 174.117 151.623 174.462C148.869 174.634 146.028 174.978 143.101 175.495L140.26 217.588C146.458 219.482 152.054 220.429 157.047 220.429C162.384 220.429 166.688 219.654 169.959 218.104C173.23 216.555 175.727 214.661 177.449 212.423C179.342 210.013 180.548 207.43 181.064 204.676C181.753 201.749 182.097 199.081 182.097 196.67C182.097 190.3 180.289 184.963 176.674 180.659C173.23 176.183 167.205 173.945 158.596 173.945ZM147.75 102.929C147.405 107.405 147.061 112.656 146.716 118.681C146.544 124.707 146.2 131.249 145.683 138.308C151.193 139.685 156.1 140.374 160.404 140.374C165.569 140.374 169.701 139.771 172.8 138.566C175.899 137.361 178.309 135.811 180.031 133.918C181.925 132.024 183.13 129.958 183.647 127.72C184.335 125.482 184.68 123.33 184.68 121.264C184.68 115.927 182.872 111.364 179.256 107.577C175.813 103.617 169.787 101.637 161.179 101.637C159.285 101.637 157.133 101.81 154.722 102.154C152.484 102.326 150.16 102.584 147.75 102.929Z" fill="white"/>
<defs>
<linearGradient id="paint0_linear_733_266" x1="79.5" y1="136.5" x2="273" y2="320" gradientUnits="userSpaceOnUse">
<stop stop-color="#FF45B1"/>
<stop offset="1" stop-color="#3ABC68"/>
</linearGradient>
</defs>
</svg>

